<svg height="46" viewBox="0 0 34 46" width="34" xmlns="http://www.w3.org/2000/svg"><path d="m34 14.2688748c0-3.3472734-1.6786378-6.84074945-4.6036137-9.58269213-.7483084-.70279915-1.5547624-1.32864949-2.4016655-1.88268094v13.54555597h-6.7651127v-16.13616599c-.8999925-.14107282-1.8151535-.21289171-2.7404267-.21289171-1.2918433 0-2.4876199.0974685-3.589858.26932084v16.07973686h-6.76764075v-13.64045951c-1.2311696.76179325-2.21458844 1.59284042-2.98564949 2.37515334-2.56599003 2.60343482-4.11569633 6.03791677-4.14603316 9.19281807v.0897737c.02022455 9.6391212 3.04885122 17.9829374 9.00498178 24.7954722 3.06654772 3.5088659 6.19882522 5.7096019 7.79403672 6.7125014l.1997175.1256831.1997174-.1256831c1.9921184-1.2517006 5.860064-4.0475075 9.3917764-8.7131705 2.2044761-2.91123 3.9463157-6.1225605 5.1724291-9.5467826 1.4839765-4.1321512 2.2373411-8.6233969 2.2373411-13.345489zm-14 11.8292784c1.0071001.4045828 2.0429746.6056772 3.0945441.6056772 1.5407324 0 2.8355755-.2848838 3.9054559-.7038304v3.3036936c-1.3916293 1.7739398-5.0407324 3.6963064-5.0407324 3.6963064l-1.9566518-1.7188782h-.0026158zm-13-1.0981532c1.0747105.4813675 2.36906985.8068376 3.9092267.8068376 1.0485619 0 2.0840494-.2297436 3.0907733-.6864957v5.9158974h-.0026149l-1.9559208 1.9637607s-3.64773998-2.1962393-5.0414643-4.222906zm7-2.9724182c-.8244463.5618986-1.8113208.9724182-2.926169.9724182-4.66365873 0-6.073831-4-6.073831-4h6.0073831 2.9926169zm6 15.0278796c0 1.6260885-1.3429213 2.9445386-2.9986517 2.9445386-1.658427 0-3.0013483-1.3184501-3.0013483-2.9445386 0-2.2853136 3.0013483-2.0484809 3.0013483-2.0484809s2.9986517-.2148585 2.9986517 2.0484809zm9-18.0554614s-1.4101723 4-6.073831 4c-1.1148482 0-2.1017227-.4105196-2.926169-.9724182v-3.0275818h2.9901559z" fill-rule="evenodd"/></svg>